<svg xmlns="http://www.w3.org/2000/svg" width="28" height="30" viewBox="0 0 28 30"><defs><style>.a{fill:#7bc447;}</style></defs><g transform="translate(-487 -2616)"><g transform="translate(487 2484)"><g transform="translate(0 132)"><path class="a" d="M26.906,137.452H3.743l3.837-3.66a1.018,1.018,0,0,0,0-1.483,1.128,1.128,0,0,0-1.547,0L.321,137.757h0a1.019,1.019,0,0,0,0,1.484h0l5.715,5.452a1.128,1.128,0,0,0,1.547,0,1.018,1.018,0,0,0,0-1.483l-3.837-3.66H26.906a1.049,1.049,0,1,0,0-2.1Z" transform="translate(0 -132)"/></g></g><g transform="translate(487 2633)"><g transform="translate(0 0)"><path class="a" d="M1.093,137.452H24.257l-3.837-3.66a1.018,1.018,0,0,1,0-1.483,1.128,1.128,0,0,1,1.547,0l5.715,5.452h0a1.019,1.019,0,0,1,0,1.484h0l-5.715,5.452a1.128,1.128,0,0,1-1.547,0,1.018,1.018,0,0,1,0-1.483l3.837-3.66H1.093a1.049,1.049,0,1,1,0-2.1Z" transform="translate(0 -132)"/></g></g></g></svg>