<svg xmlns="http://www.w3.org/2000/svg" width="18.736" height="12.391" viewBox="0 0 18.736 12.391">
    <path d="M4.502 9.396a.941.941 0 1 0 .941.941.942.942 0 0 0-.941-.941zm0 1.2a.256.256 0 1 1 .256-.256.257.257 0 0 1-.256.253z" data-name="Path 756"/>
    <path d="M14.235 9.396a.941.941 0 1 0 .941.941.942.942 0 0 0-.941-.941zm0 1.2a.256.256 0 1 1 .256-.256.257.257 0 0 1-.256.253z" data-name="Path 757"/>
    <path d="M18.3 8.684v-6.71a1.978 1.978 0 0 0-1.976-1.976H3.5A3.073 3.073 0 0 0 .434 3.069v5.615a1.084 1.084 0 0 0-.434.87v.042a1.085 1.085 0 0 0 1.084 1.088h1.394a2.053 2.053 0 0 0 4.049 0h5.683a2.053 2.053 0 0 0 4.049 0h1.394A1.085 1.085 0 0 0 18.737 9.6v-.046a1.084 1.084 0 0 0-.437-.87zm-.685-3.554h-.939a.087.087 0 0 1-.087-.087V2.405a.087.087 0 0 1 .087-.087h.939zM.685 9.595v-.041a.4.4 0 0 1 .4-.4h1.74a2.042 2.042 0 0 0-.348.841H1.084a.4.4 0 0 1-.399-.4zM4.5 11.706a1.369 1.369 0 1 1 1.369-1.369A1.371 1.371 0 0 1 4.5 11.706zm7.707-1.711h-5.68A2.052 2.052 0 0 0 3.65 8.469H1.119v-5.4A2.388 2.388 0 0 1 3.5.684h12.826a1.293 1.293 0 0 1 1.245.949h-.893a.773.773 0 0 0-.772.772v2.639a.773.773 0 0 0 .772.772h.939v2.653h-2.531a2.052 2.052 0 0 0-2.877 1.526zm2.025 1.711a1.369 1.369 0 1 1 1.368-1.369 1.371 1.371 0 0 1-1.366 1.369zm3.818-2.111a.4.4 0 0 1-.4.4h-1.391a2.042 2.042 0 0 0-.348-.841h1.741a.4.4 0 0 1 .4.4z" data-name="Path 758"/>
    <path d="M14.896 5.045V2.406a.773.773 0 0 0-.772-.772H3.584a1.653 1.653 0 0 0-1.651 1.651v1.759a.773.773 0 0 0 .772.772h11.419a.773.773 0 0 0 .772-.771zM8.757 2.319h2.691v2.813H8.757zm-.685 2.813H5.381V2.319h2.694zm-5.455-.087V3.286a.968.968 0 0 1 .967-.967h1.112v2.813H2.705a.087.087 0 0 1-.087-.087zm11.594 0a.087.087 0 0 1-.087.087h-1.992V2.319h1.992a.087.087 0 0 1 .087.087z" data-name="Path 759"/>
    <path d="M16.866 7.937a.342.342 0 0 0 .342-.342v-.3a.343.343 0 1 0-.685 0v.3a.342.342 0 0 0 .343.342z" data-name="Path 760"/>
</svg>
