<svg xmlns="http://www.w3.org/2000/svg" width="13.49" height="13.5" viewBox="0 0 13.49 13.5">
    <path d="M13.209 5.059H.829a.281.281 0 0 0-.281.281v6.752a1.408 1.408 0 0 0 1.407 1.407h10.128a1.408 1.408 0 0 0 1.407-1.407V5.34a.281.281 0 0 0-.281-.281zm-.281 7.034a.845.845 0 0 1-.844.844H1.955a.845.845 0 0 1-.844-.844V5.622h11.817z" data-name="Path 762"/>
    <path d="M13.481 2.456L13.006.639a.85.85 0 0 0-1.013-.618L.657 2.711a.843.843 0 0 0-.63 1.028l.53 2.1a.28.28 0 0 0 .272.212.278.278 0 0 0 .07-.008.281.281 0 0 0 .207-.343l-.031-.122L13.271 2.8a.282.282 0 0 0 .21-.347zM.933 5.028L.572 3.6a.282.282 0 0 1 .213-.344L12.121.569a.254.254 0 0 1 .061-.007.284.284 0 0 1 .275.217l.406 1.539z" data-name="Path 763"/>
    <path d="M3.206 5.089a.284.284 0 0 0-.378.126L1.703 7.466a.282.282 0 0 0 .5.252l1.125-2.251a.282.282 0 0 0-.122-.378z" data-name="Path 764"/>
    <path d="M6.018 5.089a.283.283 0 0 0-.378.126L4.515 7.466a.281.281 0 1 0 .5.252L6.14 5.467a.282.282 0 0 0-.122-.378z" data-name="Path 765"/>
    <path d="M8.832 5.089a.283.283 0 0 0-.378.126L7.329 7.466a.281.281 0 1 0 .5.252l1.125-2.251a.282.282 0 0 0-.122-.378z" data-name="Path 766"/>
    <path d="M11.645 5.089a.283.283 0 0 0-.378.126l-1.125 2.251a.281.281 0 1 0 .5.252l1.125-2.251a.282.282 0 0 0-.122-.378z" data-name="Path 767"/>
    <path d="M13.209 7.31H.829a.281.281 0 1 0 0 .563h12.38a.281.281 0 1 0 0-.563z" data-name="Path 768"/>
    <path d="M3.554 4.568L1.616 2.63a.283.283 0 1 0-.4.4l1.938 1.937a.283.283 0 0 0 .2.082.279.279 0 0 0 .2-.083.282.282 0 0 0 0-.398z" data-name="Path 769"/>
    <path d="M6.306 3.943l-1.94-1.938a.283.283 0 1 0-.4.4l1.94 1.936a.283.283 0 1 0 .4-.4z" data-name="Path 770"/>
    <path d="M9.055 3.318L7.119 1.379a.283.283 0 1 0-.4.4l1.936 1.939a.283.283 0 0 0 .2.082.278.278 0 0 0 .2-.082.282.282 0 0 0 0-.4z" data-name="Path 771"/>
    <path d="M11.802 2.693L9.865.754a.283.283 0 0 0-.4.4l1.937 1.939a.283.283 0 0 0 .4-.4z" data-name="Path 772"/>
</svg>
