<svg xmlns="http://www.w3.org/2000/svg" width="20.25" height="18.194" viewBox="0 0 20.25 18.194">
    <g data-name="Group 1596">
        <path d="M6.872 9.357c.013-.217.027-.433.055-.653a12.926 12.926 0 0 1 .281-1.548c.07-.253.146-.5.226-.747.1-.239.2-.476.3-.708a6.076 6.076 0 0 1 .778-1.229l.211-.268.235-.232a5.882 5.882 0 0 1 .461-.419 6.117 6.117 0 0 1 .892-.6 5.21 5.21 0 0 1 .732-.366c.421-.17.661-.255.661-.255s-.2.162-.561.425a7.84 7.84 0 0 0-.612.5 9.267 9.267 0 0 0-.722.706c-.13.13-.232.294-.355.444q-.09.115-.185.232c-.051.087-.1.173-.158.262a7.384 7.384 0 0 0-.582 1.148l-.224.646c-.052.226-.109.455-.172.683a12.351 12.351 0 0 0-.227 1.438c-.028.178-.041.358-.058.539h11.159c.014-.185.022-.373.022-.562a6.848 6.848 0 0 0-5.937-6.886 1.106 1.106 0 1 0-1.508 0 6.847 6.847 0 0 0-5.936 6.886c0 .188.007.374.021.558z" data-name="Path 721"/>
        <path d="M4.432 9.769H20.25v1.395H4.432z" data-name="Rectangle 1913"/>
        <path d="M13.757 12.155c-.8.391-3.607 1.4-3.607 1.4l-3.314-.208s1.9-.527 2.63-.692a.5.5 0 0 0 .009-.994c-.407 0-3.953.146-3.953.146l-2.355.848.623 3.945s.485-.83.968-.83 4.69.112 5.261 0A41.666 41.666 0 0 0 14.485 13c.414-.274.079-1.233-.728-.845z" data-name="Path 722"/>
        <path d="M0 13.081v5.111l3.608-.675-.9-4.914z" data-name="Path 723"/>
    </g>
</svg>
