<svg xmlns="http://www.w3.org/2000/svg" width="15.127" height="12.101" viewBox="0 0 15.127 12.101">
    <g data-name="Group 1604">
        <path d="M14.756.37a1.214 1.214 0 0 0-.89-.37H1.261a1.214 1.214 0 0 0-.89.37 1.214 1.214 0 0 0-.37.89v9.58a1.214 1.214 0 0 0 .37.89 1.214 1.214 0 0 0 .89.37h12.605a1.264 1.264 0 0 0 1.261-1.261v-9.58a1.214 1.214 0 0 0-.371-.889zm-.638 10.47a.255.255 0 0 1-.252.252H1.261a.255.255 0 0 1-.252-.252V6.05h13.109v4.79zm0-7.815H1.008V1.26a.255.255 0 0 1 .252-.252h12.606a.255.255 0 0 1 .252.252v1.765z" data-name="Path 761"/>
        <path d="M2.017 9.076h2.017v1.009H2.017z" data-name="Rectangle 1916"/>
        <path d="M5.042 9.076h3.025v1.009H5.042z" data-name="Rectangle 1917"/>
    </g>
</svg>
