<svg xmlns="http://www.w3.org/2000/svg" width="18.432" height="11.184" viewBox="0 0 18.432 11.184">
    <defs>
        <style>
            .cls-1{fill:#010002}
        </style>
    </defs>
    <g id="dining-meal-covered" transform="translate(0 -72.635)">
        <g id="Group_1603" data-name="Group 1603" transform="translate(0 72.635)">
            <path id="Path_754" d="M11.515 74.75v-2.115H7.191v2.043a8.357 8.357 0 0 0-6.285 7.536H0v1.605h18.431v-1.605h-.888a8.357 8.357 0 0 0-6.028-7.464zm-3.16-1.187h2v.943a8.226 8.226 0 0 0-2-.033v-.91zm-.643 2.188a7.181 7.181 0 0 1 8.67 6.438H2.067a7.2 7.2 0 0 1 5.645-6.438z" class="cls-1" data-name="Path 754" transform="translate(0 -72.635)"/>
            <path id="Path_755" d="M195.965 148.99a6.565 6.565 0 0 0-3.374-3.136 1.2 1.2 0 0 0-.515-.118 1.252 1.252 0 0 0-1.185.973 1.031 1.031 0 0 0 .6 1.186 4.525 4.525 0 0 1 2.431 2.185 1.019 1.019 0 0 0 .937.635 1.264 1.264 0 0 0 1.026-.581 1.18 1.18 0 0 0 .08-1.144zm-.815.671a.391.391 0 0 1-.3.183c-.031 0-.088 0-.143-.121a5.447 5.447 0 0 0-2.854-2.616c-.109-.051-.141-.108-.118-.208a.38.38 0 0 1 .335-.293.337.337 0 0 1 .143.035 5.729 5.729 0 0 1 2.952 2.706.307.307 0 0 1-.016.313z" class="cls-1" data-name="Path 755" transform="translate(-181.34 -142.088)"/>
        </g>
    </g>
</svg>
