<svg xmlns="http://www.w3.org/2000/svg" width="15.5" height="17.745" viewBox="0 0 15.5 17.745">
    <path d="M11.92 8.059v-1.2a7.283 7.283 0 0 0 .508-3.023 12.814 12.814 0 0 1 .532-2.9l.11-.369L10.602 0l-.082.354a3.039 3.039 0 0 1-.531 1.022A2.7 2.7 0 0 1 7.752 2.4 2.786 2.786 0 0 1 4.986.354L4.901 0 2.433.568l.112.376a12.793 12.793 0 0 1 .532 2.9 7.283 7.283 0 0 0 .508 3.023v1.19L0 16.136l.209.178c.068.058 1.743 1.431 7.541 1.431s7.473-1.373 7.542-1.431l.209-.178zm-7.6-.3V7.24h6.862v.523zM4.387.874a3.889 3.889 0 0 0 .554.959 3.437 3.437 0 0 0 2.811 1.3 3.437 3.437 0 0 0 2.811-1.3 3.889 3.889 0 0 0 .557-.959l1.031.237a11.35 11.35 0 0 0-.456 2.76 6.659 6.659 0 0 1-.426 2.629H4.234a6.617 6.617 0 0 1-.421-2.633 11.35 11.35 0 0 0-.456-2.76zm8.97 15.5a21.53 21.53 0 0 1-5.606.63 21.528 21.528 0 0 1-5.606-.63 6.165 6.165 0 0 1-1.231-.484l3.28-7.4H5.56l-.723 3.21.718.162.758-3.362h2.843l.764 3.37.718-.162L9.911 8.5h1.4l3.28 7.4a6.163 6.163 0 0 1-1.234.479z"/>
</svg>
