<svg xmlns="http://www.w3.org/2000/svg" width="18.667" height="15.065" viewBox="0 0 18.667 15.065">
    <path d="M18.225 0H.441A.441.441 0 0 0 0 .441v12.272a.441.441 0 0 0 .441.441h6.687v1.058a.421.421 0 0 0 0 .045h-.96a.405.405 0 0 0 0 .809h6.54a.405.405 0 0 0 0-.809h-.96V13.157h6.467a.441.441 0 0 0 .441-.441V.441A.442.442 0 0 0 18.225 0zm-.808 10.79a.441.441 0 0 1-.441.441H1.69a.441.441 0 0 1-.441-.441V1.484a.441.441 0 0 1 .441-.441h15.285a.441.441 0 0 1 .441.441v9.305z" data-name="Path 724"/>
</svg>
