<svg xmlns="http://www.w3.org/2000/svg" width="16.72" height="17.2" viewBox="0 0 16.72 17.2">
    <path d="M16.218 11.693a2.137 2.137 0 0 0 .5-1.428 2.194 2.194 0 0 0-.468-1.237 1.922 1.922 0 0 0-.457-2.212 3.972 3.972 0 0 0-2.888-.691 11.288 11.288 0 0 0-1.77.227c-.18.032-.37.072-.565.115a6.275 6.275 0 0 1 .45-2.09c.5-1.532.475-2.7-.094-3.489A2.286 2.286 0 0 0 9.093 0a.9.9 0 0 0-.694.317 2.42 2.42 0 0 0-.3 1.716c-.475 1.273-1.806 4.4-2.931 5.262a.385.385 0 0 0-.058.05 3.864 3.864 0 0 0-.7 1.057 1.484 1.484 0 0 0-.712-.18H1.496a1.5 1.5 0 0 0-1.5 1.5v5.845a1.5 1.5 0 0 0 1.5 1.5H3.69a1.493 1.493 0 0 0 .863-.273l.845.1a36.214 36.214 0 0 0 4.795.263c.428.032.831.05 1.2.05a8.07 8.07 0 0 0 1.673-.151 3.128 3.128 0 0 0 2.234-1.388 2.2 2.2 0 0 0 .245-1.378 2.294 2.294 0 0 0 .816-1.867 2.43 2.43 0 0 0-.143-.73zm-14.722 4.4a.526.526 0 0 1-.525-.525V9.715a.526.526 0 0 1 .525-.525H3.69a.526.526 0 0 1 .525.525v5.845a.526.526 0 0 1-.525.525H1.496zm13.8-4.816a.483.483 0 0 0-.065.586 1.5 1.5 0 0 1 .165.6 1.439 1.439 0 0 1-.671 1.237.49.49 0 0 0-.165.554 1.27 1.27 0 0 1-.1.928 2.25 2.25 0 0 1-1.59.914 9.476 9.476 0 0 1-2.622.079h-.05a35.5 35.5 0 0 1-4.676-.255l-.363-.043a1.524 1.524 0 0 0 .032-.317V9.715a1.522 1.522 0 0 0-.068-.446 3.006 3.006 0 0 1 .669-1.234c1.615-1.28 3.194-5.6 3.262-5.787a.455.455 0 0 0 .022-.241A2.248 2.248 0 0 1 9.118.964a1.29 1.29 0 0 1 1.014.486 3.063 3.063 0 0 1-.043 2.615c-.6 1.831-.655 2.795-.176 3.219a.784.784 0 0 0 .784.14c.219-.05.428-.094.626-.126l.047-.011c1.1-.241 3.082-.388 3.769.237a1.035 1.035 0 0 1 .122 1.313.481.481 0 0 0 .086.626 1.363 1.363 0 0 1 .4.838 1.336 1.336 0 0 1-.45.971z" data-name="Path 745"/>
</svg>
