<svg xmlns="http://www.w3.org/2000/svg" width="15.5" height="15.184" viewBox="0 0 15.5 15.184">
    <g data-name="Group 1601">
        <path d="M11.316 9.407q-.362.584-.791 1.218c2.4.359 3.635 1.129 3.635 1.513 0 .51-2.181 1.706-6.41 1.706s-6.41-1.2-6.41-1.706c0-.383 1.23-1.153 3.635-1.513q-.429-.633-.792-1.218C1.811 9.854 0 10.774 0 12.137c0 2 3.9 3.047 7.75 3.047s7.75-1.047 7.75-3.047c0-1.363-1.811-2.283-4.184-2.73z" data-name="Path 746"/>
        <g data-name="Group 1600">
            <path d="M7.768 0a4.549 4.549 0 0 0-4.55 4.549c0 1.8 2.34 5.251 3.664 7.057a1.1 1.1 0 0 0 1.771 0c1.324-1.806 3.664-5.255 3.664-7.057A4.549 4.549 0 0 0 7.768 0zm0 7.374a2.692 2.692 0 1 1 2.692-2.692 2.7 2.7 0 0 1-2.692 2.692z" data-name="Path 747"/>
            <path d="M7.768 3.044a1.637 1.637 0 1 0 1.638 1.638 1.639 1.639 0 0 0-1.638-1.638z" data-name="Path 748"/>
        </g>
    </g>
</svg>
