<svg xmlns="http://www.w3.org/2000/svg" width="20.584" height="10.837" viewBox="0 0 20.584 10.837">
    <path d="M8.677.06L3.55 3.478v3.88l5.127 3.42a.355.355 0 0 0 .552-.3V.355a.355.355 0 0 0-.552-.3zm0 0" data-name="Path 725"/>
    <path d="M2.84 7.188v-3.55H.293A.294.294 0 0 0 0 3.936v2.963a.294.294 0 0 0 .293.293zm0 0" data-name="Path 726"/>
    <path d="M16.475 5.417l4.009-4.009a.355.355 0 0 0-.5-.5l-4.009 4.009L11.966.908a.355.355 0 0 0-.5.5l4.009 4.009-4.009 4.009a.355.355 0 1 0 .5.5l4.009-4.009 4.009 4.009a.355.355 0 0 0 .5-.5zm0 0" data-name="Path 727"/>
</svg>
