<svg xmlns="http://www.w3.org/2000/svg" width="22" height="14.885" viewBox="0 0 22 14.885">
    <g data-name="Group 1599">
        <path d="M17.16 10.663L15 2.581l-.145-.539a1.113 1.113 0 0 0-2.187.239L.933 8.649a.552.552 0 0 0-.52-.14.558.558 0 0 0-.394.684l.216.808.433 1.618.216.809a.556.556 0 0 0 .683.394.547.547 0 0 0 .381-.38l.89-.024a2.984 2.984 0 0 0 5.053 1.594 2.956 2.956 0 0 0 .84-1.749l6.561-.172a1.113 1.113 0 0 0 2.014-.887zM7.1 13.219a1.866 1.866 0 0 1-3.124-.835l3.628-.1a1.851 1.851 0 0 1-.504.935zm-4.32-3.035l10.426-5.659 1.433 5.348z" data-name="Path 741"/>
        <path d="M18.818 6.466l2.694-.722a.558.558 0 0 0-.288-1.078l-2.694.722a.558.558 0 0 0 .288 1.078z" data-name="Path 742"/>
        <path d="M21.587 9.992l-2.694-.722a.558.558 0 1 0-.289 1.078l2.694.722a.546.546 0 0 0 .288 0 .558.558 0 0 0 0-1.078z" data-name="Path 743"/>
        <path d="M16.947 3.069a.555.555 0 0 0 .249-.144L19.168.953a.558.558 0 0 0-.79-.789l-1.974 1.972a.558.558 0 0 0 .54.933z" data-name="Path 744"/>
    </g>
</svg>
