<svg xmlns="http://www.w3.org/2000/svg" width="20.25" height="20.25" viewBox="0 0 20.25 20.25">
    <path d="M19.657 9.255H.593a.594.594 0 0 0 0 1.187h.478l1.344 5.774a2.954 2.954 0 0 0 1.634 2.018l-.742 1.089a.593.593 0 1 0 .98.668l1.01-1.481h9.656l1.01 1.481a.593.593 0 0 0 .98-.668l-.742-1.089a2.954 2.954 0 0 0 1.634-2.018l1.344-5.774h.478a.594.594 0 0 0 0-1.187z" data-name="Path 719"/>
    <path d="M18.063 1.384A1.386 1.386 0 0 0 16.683 0h-4.82a1.386 1.386 0 0 0-1.384 1.384v1.9H9.055a.594.594 0 1 0 0 1.187h4.034a.594.594 0 1 0 0-1.187h-1.426v-1.9a.2.2 0 0 1 .2-.2h4.817a.2.2 0 0 1 .2.2v6.684h1.183V1.384z" data-name="Path 720"/>
</svg>
