<svg xmlns="http://www.w3.org/2000/svg" width="15.5" height="13.675" viewBox="0 0 15.5 13.675">
    <g data-name="Group 1602">
        <path d="M11.756 13.616c.163.163.643-.052.806-.215l.269-.269c.163-.163.378-.643.215-.806l-4.04-3.834-1.057 1.114z" data-name="Path 751"/>
        <path d="M5.057 4.745a2.346 2.346 0 0 0-.58-2.849C3.5.918 1.388-.038.41.94s-.022 3.09.956 4.068a2.36 2.36 0 0 0 2.8.609L6.08 7.635l1.011-.96z" data-name="Path 752"/>
        <path d="M10.034 4.718l-8.016 7.609c-.163.163.052.643.215.806l.269.269a1.1 1.1 0 0 0 .632.273.241.241 0 0 0 .174-.058l7.638-8.048a1.876 1.876 0 0 0 .663.184 2.49 2.49 0 0 0 1.952-.8c1.926-1.925 2.271-2.349 1.68-3.091l-2.276 2.176a.279.279 0 0 1-.195.082.235.235 0 0 1-.168-.069l-.061-.06a.236.236 0 0 1-.069-.169.284.284 0 0 1 .084-.2l2.062-2.418-.147-.147-.249-.25-2.43 2.073a.272.272 0 0 1-.188.076.235.235 0 0 1-.168-.069l-.061-.06a.236.236 0 0 1-.069-.169.284.284 0 0 1 .084-.2l2.17-2.26c-.7-.508-1.124-.084-2.982 1.773A2.425 2.425 0 0 0 9.8 4.098a1.926 1.926 0 0 0 .234.62z" data-name="Path 753"/>
    </g>
</svg>
