<svg xmlns="http://www.w3.org/2000/svg" width="17.5" height="12.5" viewBox="0 0 17.5 12.5"><defs><style>.a{fill:#d2d2d2;stroke:#d2d2d2;stroke-width:0.5px;}</style></defs><path class="a" d="M24.726,89h-.274V86.818a1.1,1.1,0,0,0-1.1-1.091V81.091A1.1,1.1,0,0,0,22.258,80H10.742a1.1,1.1,0,0,0-1.1,1.091v4.636a1.1,1.1,0,0,0-1.1,1.091V89H8.274A.273.273,0,0,0,8,89.273v1.091a.273.273,0,0,0,.274.273h.274v1.091A.273.273,0,0,0,8.823,92h.823a.274.274,0,0,0,.269-.219l.23-1.144H22.856l.23,1.144a.274.274,0,0,0,.269.219h.823a.273.273,0,0,0,.274-.273V90.636h.274A.273.273,0,0,0,25,90.364V89.273A.273.273,0,0,0,24.726,89ZM10.194,81.091a.548.548,0,0,1,.548-.545H22.258a.548.548,0,0,1,.548.545v4.636h-.548V84.636a1.1,1.1,0,0,0-1.1-1.091h-3.29a1.1,1.1,0,0,0-1.1,1.091v1.091h-.548V84.636a1.1,1.1,0,0,0-1.1-1.091h-3.29a1.1,1.1,0,0,0-1.1,1.091v1.091h-.548ZM21.71,84.636v1.091H17.323V84.636a.548.548,0,0,1,.548-.545h3.29a.548.548,0,0,1,.548.545Zm-6.032,0v1.091H11.29V84.636a.548.548,0,0,1,.548-.545h3.29A.548.548,0,0,1,15.677,84.636ZM9.1,86.818a.548.548,0,0,1,.548-.545h13.71a.548.548,0,0,1,.548.545V89H9.1Zm.324,4.636H9.1v-.818h.488Zm14.483,0H23.58l-.165-.818H23.9Zm.548-1.364H8.548v-.545h15.9Z" transform="translate(-7.75 -79.75)"/></svg>